PathFileType	4	(X/Y/Z)	OpenSim_Sub01_EMGBaseline_Gyro.trc
DataRate	CameraRate	NumFrames	NumMarkers	Units	OrigDataRate	OrigDataStartFrame	OrigNumFrames
100	100	33	8	m	100	951	7604
Frame#	Time	torso_imu_offset_imu	pelvis_imu_offset_imu	tibia_r_imu_offset_imu	femur_r_imu_offset_imu	tibia_l_imu_offset_imu	femur_l_imu_offset_imu	toes_r_imu_offset_imu	toes_l_imu_offset_imu
				X1	Y1	Z1	X2	Y2	Z2	X3	Y3	Z3	X4	Y4	Z4	X5	Y5	Z5	X6	Y6	Z6	X7	Y7	Z7	X8		Y8	Z8	

951	9.50000000	0.28943362	-0.04516062	0.12645920	0.11251615	-0.20411433	-0.16663400	-0.12145638	-0.35163480	-0.70179151	0.39443739	-0.06919253	-0.77994439	1.24022880	-0.44417190	-0.40203284	1.04424931	0.58051780	-1.56210169	0.06103030	-0.00071501	-0.13648730	-0.31546723	2.35110901	0.71498736
952	9.51000000	0.29832032	-0.06280735	0.09140307	0.08846511	-0.23305841	-0.23410912	0.15832637	-0.32049101	-0.63562178	0.55937870	-0.05262188	-0.79343822	1.18713677	-0.41767623	-0.87994902	0.84426364	0.55446714	-1.52728244	0.04994890	-0.00677738	-0.11679885	0.03455278	2.52057100	0.51952301
953	9.52000000	0.31204910	-0.07904035	0.06702525	0.08917656	-0.24214510	-0.29763220	0.40679105	-0.30166133	-0.56235102	0.64536737	-0.04898564	-0.85298047	0.98569244	-0.38856343	-1.28921765	0.57212620	0.55779580	-1.49489716	0.03917544	-0.01941074	-0.09829187	0.32406001	2.68028941	0.30931959
954	9.53000000	0.33069953	-0.09132801	0.05545193	0.11742688	-0.23568914	-0.36636807	0.52939036	-0.30260874	-0.50520160	0.60678349	-0.05388395	-0.93421455	0.64124894	-0.45980514	-1.59340528	0.26895267	0.55207182	-1.44540677	0.03254785	-0.04054089	-0.08538523	0.38627934	2.83014138	0.11577445
955	9.54000000	0.34869583	-0.09960946	0.05391620	0.15606361	-0.21629488	-0.41894019	0.51178485	-0.31763597	-0.46759155	0.48034187	-0.06231847	-1.01840807	0.27841329	-0.58623841	-1.84558249	-0.03490472	0.53966721	-1.38282593	0.03150113	-0.06294626	-0.07882453	0.34707672	3.00501429	-0.08709858
956	9.55000000	0.35973854	-0.10425526	0.05877191	0.18511567	-0.18641836	-0.43018374	0.35733045	-0.33860986	-0.44878410	0.31722996	-0.06927722	-1.08806603	0.03598648	-0.69821570	-2.11186879	-0.31198687	0.52967065	-1.31495015	0.03673845	-0.07808276	-0.07858772	0.37630961	3.24311926	-0.33258209
957	9.56000000	0.36234540	-0.10525579	0.06675338	0.19756938	-0.15102757	-0.40274007	0.11226967	-0.35735614	-0.44066210	0.15741621	-0.07119974	-1.12864887	-0.06475335	-0.76952950	-2.40602845	-0.54834908	0.51879013	-1.24098857	0.04466075	-0.08292357	-0.08332837	0.49250925	3.53554772	-0.60438754
958	9.57000000	0.35874188	-0.10230951	0.07488807	0.19638516	-0.11702240	-0.36065197	-0.14414983	-0.36567076	-0.42943175	0.03222450	-0.06564461	-1.12789998	-0.09298802	-0.80741502	-2.70152869	-0.74045028	0.49420766	-1.15354339	0.04835909	-0.07868990	-0.09068043	0.59774602	3.83712368	-0.84807840
959	9.58000000	0.35053021	-0.09599868	0.08054088	0.18414399	-0.08893929	-0.32348117	-0.34386543	-0.35785888	-0.40749493	-0.03804022	-0.05241515	-1.08396474	-0.10783295	-0.82321610	-2.97893957	-0.88533448	0.44894862	-1.04882106	0.04351838	-0.06783639	-0.09807944	0.63134059	4.10904624	-1.02411769
960	9.59000000	0.33717744	-0.08955399	0.08205695	0.16153683	-0.06414429	-0.29583853	-0.45457271	-0.33568384	-0.38609748	-0.06515416	-0.03789911	-1.02572279	-0.13157755	-0.83792880	-3.24301671	-0.98098915	0.39412983	-0.93424299	0.03378387	-0.05615795	-0.10244938	0.65220172	4.33422956	-1.14015701
961	9.60000000	0.31782759	-0.08649686	0.07813617	0.12917864	-0.03891346	-0.27926029	-0.45298186	-0.30264509	-0.37912313	-0.06629618	-0.02926666	-0.98616649	-0.17938528	-0.87261847	-3.50236486	-1.02578826	0.34353639	-0.81869991	0.02402931	-0.04971527	-0.10090247	0.73592012	4.50065910	-1.21160672
962	9.61000000	0.29269880	-0.08737160	0.07007476	0.09177515	-0.01304990	-0.27063834	-0.35176611	-0.26758684	-0.38779594	-0.05073477	-0.02717952	-0.97480291	-0.26167074	-0.92268448	-3.75627571	-1.02127974	0.30083002	-0.70204318	0.01548912	-0.04930484	-0.09478296	0.87686725	4.61212816	-1.23942675
963	9.62000000	0.26283623	-0.09043100	0.06116666	0.05717945	0.01092857	-0.26329104	-0.19128527	-0.24346334	-0.40359549	-0.02164886	-0.02729007	-0.98305850	-0.38517194	-0.96377477	-3.99686803	-0.97145554	0.26187987	-0.57717207	0.00659669	-0.05167172	-0.08869185	1.00690778	4.68459770	-1.21346258
964	9.63000000	0.22949561	-0.09423690	0.05351364	0.03099182	0.03091766	-0.25278837	-0.01539972	-0.23757345	-0.41904063	0.01807595	-0.02624631	-0.99977711	-0.52884373	-0.97932035	-4.21125558	-0.88134437	0.22283852	-0.44531216	-0.00351230	-0.05471710	-0.08597461	1.07752204	4.73260310	-1.13586444
965	9.64000000	0.19449526	-0.09844447	0.04552226	0.01187796	0.04624945	-0.24166395	0.12374462	-0.24009726	-0.43048317	0.06596022	-0.02403764	-1.00751050	-0.58936652	-0.97738879	-4.37222832	-0.75886878	0.18129633	-0.33296149	-0.01340118	-0.06008719	-0.08599692	1.10325435	4.76551360	-1.04619464
966	9.65000000	0.15966167	-0.10292081	0.03504099	-0.00281385	0.05649764	-0.23330641	0.17542331	-0.23857589	-0.43553365	0.11998528	-0.02136944	-0.98924690	-0.45899826	-0.96982934	-4.45329927	-0.61185989	0.13472596	-0.26830857	-0.02138140	-0.06995840	-0.08729527	1.10919125	4.79005970	-0.98848707
967	9.66000000	0.12538723	-0.10767949	0.02179012	-0.01626396	0.06087737	-0.22463413	0.13310252	-0.22842128	-0.44003356	0.18390341	-0.02041675	-0.95191220	-0.19142964	-0.95692152	-4.47842693	-0.43877527	0.07486141	-0.23492237	-0.02836072	-0.08407989	-0.08700924	1.10370017	4.78777953	-0.97018622
968	9.67000000	0.09096068	-0.11284667	0.00693068	-0.03205885	0.05832920	-0.20758746	0.02427106	-0.21110521	-0.45615646	0.26590202	-0.02448447	-0.92085227	0.03542047	-0.93004244	-4.51038325	-0.23086899	-0.01097268	-0.18203822	-0.03724449	-0.10033241	-0.08120515	1.08228035	4.72083175	-0.97057325
969	9.68000000	0.05606379	-0.11837564	-0.00855211	-0.05273157	0.04967153	-0.17770717	-0.11658503	-0.18937812	-0.49069187	0.36454852	-0.03491809	-0.91230543	0.09756893	-0.88568979	-4.58702732	0.00450792	-0.12456933	-0.07729842	-0.04961723	-0.11659499	-0.06876052	1.04304135	4.56897034	-0.97257923
970	9.69000000	0.02163047	-0.12369740	-0.02430560	-0.07765385	0.04132359	-0.14161296	-0.23678846	-0.16932675	-0.53394711	0.44948618	-0.04715449	-0.91403966	0.04079383	-0.83625706	-4.66922478	0.21162302	-0.23504849	0.05433539	-0.06298594	-0.13088433	-0.05698824	0.99283270	4.36571364	-0.97213340
971	9.70000000	-0.01120228	-0.12821614	-0.04009402	-0.10546747	0.04024895	-0.10764186	-0.28384322	-0.15725056	-0.57383144	0.48709071	-0.05584490	-0.90913049	-0.06081240	-0.79608091	-4.70603854	0.32960159	-0.30758584	0.17938983	-0.07425646	-0.14142766	-0.05430426	0.93896271	4.15370376	-0.96868566
972	9.71000000	-0.04172292	-0.13237976	-0.05568045	-0.13263655	0.04606169	-0.07917901	-0.25829040	-0.15340257	-0.60796896	0.47486144	-0.06023014	-0.88920170	-0.17912198	-0.76459896	-4.68292402	0.35446908	-0.33872643	0.29560003	-0.08261928	-0.14922147	-0.06229469	0.87142562	3.96336617	-0.97840788
973	9.72000000	-0.06954738	-0.13743912	-0.07082734	-0.15395102	0.05271864	-0.05579796	-0.20149439	-0.15338230	-0.64146077	0.43425378	-0.06308448	-0.85246031	-0.32138600	-0.72978452	-4.61335001	0.32604428	-0.34915737	0.42471489	-0.08902372	-0.15739356	-0.07728830	0.76689434	3.81570900	-1.03033715
974	9.73000000	-0.09424342	-0.14407653	-0.08561545	-0.16696189	0.05457141	-0.03750949	-0.14963262	-0.15412495	-0.67764355	0.38337125	-0.06772308	-0.80096893	-0.48942671	-0.68588865	-4.50940448	0.27398104	-0.35203234	0.57503308	-0.09455598	-0.16851889	-0.09593135	0.61101284	3.71426344	-1.14406700
975	9.74000000	-0.11521064	-0.15122344	-0.10107144	-0.17755249	0.04757706	-0.02591494	-0.12034946	-0.15689025	-0.71403964	0.32852655	-0.07879822	-0.74774350	-0.66623073	-0.64669263	-4.37693092	0.19438156	-0.33627477	0.71305147	-0.10057469	-0.18336688	-0.11621523	0.41710018	3.61134920	-1.31014683
976	9.75000000	-0.13187818	-0.15747934	-0.11831823	-0.19255792	0.02833035	-0.02270491	-0.12691625	-0.16343246	-0.74731843	0.27384095	-0.10079311	-0.70694522	-0.83274645	-0.62775154	-4.21974652	0.08035326	-0.28824621	0.79939664	-0.10848447	-0.20247448	-0.13641695	0.20491921	3.45290548	-1.51498552
977	9.76000000	-0.14458257	-0.16132021	-0.13730175	-0.21000383	-0.00147374	-0.02650488	-0.16844177	-0.17094142	-0.77747206	0.22326404	-0.13196193	-0.67956946	-0.99153182	-0.61713351	-4.02862275	-0.02698904	-0.22300626	0.82249959	-0.11962435	-0.22789500	-0.15536555	0.01409019	3.23107302	-1.76338502
978	9.77000000	-0.15435870	-0.16112745	-0.15706181	-0.22113743	-0.03621508	-0.03358126	-0.23313134	-0.17309495	-0.80705125	0.18060916	-0.16576390	-0.65647810	-1.16176781	-0.58175621	-3.78429767	-0.04960085	-0.17769700	0.79219625	-0.13528202	-0.26284973	-0.17231418	-0.10051088	2.97355186	-2.07428247
979	9.78000000	-0.16201797	-0.15598867	-0.17643318	-0.22112147	-0.07149746	-0.04066045	-0.30752431	-0.16565231	-0.83965122	0.14418239	-0.19575421	-0.63036875	-1.34713694	-0.49997985	-3.47940256	0.05634063	-0.17766804	0.72024469	-0.15559867	-0.31148212	-0.18538107	-0.12407710	2.70003954	-2.43523157
980	9.79000000	-0.16765444	-0.14709701	-0.19371064	-0.21727152	-0.10686143	-0.04601603	-0.37404312	-0.15082605	-0.88177537	0.09593601	-0.21613977	-0.60016819	-1.50399869	-0.38578206	-3.14267530	0.23014840	-0.21154053	0.62247828	-0.17731268	-0.38058644	-0.18927978	-0.16203000	2.40373679	-2.73945221
981	9.80000000	-0.17117980	-0.13594525	-0.20718367	-0.21865906	-0.14221527	-0.04828596	-0.41490741	-0.13186998	-0.93983721	0.01700163	-0.22153347	-0.56595026	-1.58175751	-0.26030024	-2.80513709	0.39300688	-0.26059663	0.51520567	-0.19674883	-0.47666205	-0.17851976	-0.32619530	2.07304811	-2.86919471
982	9.81000000	-0.17176174	-0.12268483	-0.21655619	-0.22700986	-0.17207807	-0.04728063	-0.42069170	-0.10976570	-1.01086008	-0.07852722	-0.21082001	-0.52771961	-1.55666573	-0.15327046	-2.43208821	0.48396132	-0.29791133	0.41057336	-0.21345772	-0.59446253	-0.15397575	-0.49162247	1.69791312	-2.80353892
983	9.82000000	-0.16799559	-0.10643475	-0.22262093	-0.23839479	-0.18682314	-0.04371318	-0.38840712	-0.08374720	-1.08464131	-0.15119100	-0.18617294	-0.48542865	-1.42564009	-0.10103086	-1.93827293	0.45582606	-0.29025579	0.31751806	-0.22947273	-0.71970286	-0.12142276	-0.35122426	1.26944814	-2.59609857
